<?xml version="1.0" encoding="UTF-8" standalone="no"?>
<!DOCTYPE svg PUBLIC "-//W3C//DTD SVG 1.1//EN" "http://www.w3.org/Graphics/SVG/1.1/DTD/svg11.dtd">
<svg width="100%" height="100%" viewBox="0 0 539 207" version="1.1" xmlns="http://www.w3.org/2000/svg" xmlns:xlink="http://www.w3.org/1999/xlink" xml:space="preserve" xmlns:serif="http://www.serif.com/" style="fill-rule:evenodd;clip-rule:evenodd;stroke-linejoin:round;stroke-miterlimit:2;">
    <g transform="matrix(1,0,0,1,-254.343,-186.557)">
        <g>
            <g transform="matrix(1.69465,0,0,0.947567,60.1322,2.60021)">
                <rect x="137.278" y="272.596" width="33.023" height="10.136" style="fill:rgb(244,233,52);"/>
            </g>
            <g transform="matrix(2.04063,0,0,0.947567,195.858,48.9105)">
                <rect x="137.278" y="272.596" width="33.023" height="10.136" style="fill:rgb(53,222,95);"/>
            </g>
            <g transform="matrix(0.806687,0,0,0.947567,255.132,48.9105)">
                <rect x="137.278" y="272.596" width="33.023" height="10.136" style="fill:rgb(95,129,234);"/>
            </g>
            <g transform="matrix(0.806687,0,0,0.947567,312.05,48.9105)">
                <rect x="137.278" y="272.596" width="33.023" height="10.136" style="fill:rgb(95,129,234);"/>
            </g>
            <g transform="matrix(0.880269,0,0,0.947567,134.699,48.9105)">
                <rect x="137.278" y="272.596" width="33.023" height="10.136" style="fill:rgb(244,233,52);"/>
            </g>
            <g transform="matrix(0.821465,0,0,0.947567,356.025,95.2043)">
                <rect x="137.278" y="272.596" width="33.023" height="10.136" style="fill:rgb(53,222,95);"/>
            </g>
            <g transform="matrix(0.85107,0,0,0.947567,249.342,95.2043)">
                <rect x="137.278" y="272.596" width="33.023" height="10.136" style="fill:rgb(95,129,234);"/>
            </g>
            <g transform="matrix(0.874387,0,0,0.947567,300.463,95.2043)">
                <rect x="137.278" y="272.596" width="33.023" height="10.136" style="fill:rgb(95,129,234);"/>
            </g>
            <g transform="matrix(1.17875,0,0,0.947567,100.058,95.2043)">
                <rect x="137.278" y="272.596" width="33.023" height="10.136" style="fill:rgb(244,233,52);"/>
            </g>
            <g transform="matrix(0.218251,0,0,0.947567,311.565,95.2043)">
                <rect x="137.278" y="272.596" width="33.023" height="10.136" style="fill:rgb(244,233,52);"/>
            </g>
            <g transform="matrix(1.11916,0,0,0.947567,110.944,25.5992)">
                <rect x="137.278" y="272.596" width="33.023" height="10.136" style="fill:rgb(244,233,52);"/>
            </g>
            <g transform="matrix(0.194141,0,0,0.947567,315.671,25.5992)">
                <rect x="137.278" y="272.596" width="33.023" height="10.136" style="fill:rgb(244,233,52);"/>
            </g>
            <g transform="matrix(2.50237,0,0,0.947567,123.348,71.9095)">
                <rect x="137.278" y="272.596" width="33.023" height="10.136" style="fill:rgb(53,222,95);"/>
            </g>
            <g transform="matrix(0.806687,0,0,0.947567,255.132,71.9095)">
                <rect x="137.278" y="272.596" width="33.023" height="10.136" style="fill:rgb(95,129,234);"/>
            </g>
            <g transform="matrix(0.806687,0,0,0.947567,312.05,71.9095)">
                <rect x="137.278" y="272.596" width="33.023" height="10.136" style="fill:rgb(95,129,234);"/>
            </g>
            <g transform="matrix(0.890002,0,0,0.947567,132.626,71.9095)">
                <rect x="137.278" y="272.596" width="33.023" height="10.136" style="fill:rgb(244,233,52);"/>
            </g>
            <g transform="matrix(1.51849,0,0,0.947567,279.255,118.203)">
                <rect x="137.278" y="272.596" width="33.023" height="10.136" style="fill:rgb(53,222,95);"/>
            </g>
            <g transform="matrix(1.05766,0,0,0.947567,232.373,118.203)">
                <rect x="137.278" y="272.596" width="33.023" height="10.136" style="fill:rgb(95,129,234);"/>
            </g>
            <g transform="matrix(0.803686,0,0,0.947567,312.504,118.203)">
                <rect x="137.278" y="272.596" width="33.023" height="10.136" style="fill:rgb(95,129,234);"/>
            </g>
            <g transform="matrix(1.81486,0,0,0.947567,39.6605,118.203)">
                <rect x="137.278" y="272.596" width="33.023" height="10.136" style="fill:rgb(244,233,52);"/>
            </g>
            <g transform="matrix(2.27284,0,0,0.947567,-38.3336,14.0997)">
                <rect x="137.278" y="272.596" width="33.023" height="10.136" style="fill:rgb(244,233,52);"/>
            </g>
            <g transform="matrix(0.821465,0,0,0.947567,356.025,60.41)">
                <rect x="137.278" y="272.596" width="33.023" height="10.136" style="fill:rgb(53,222,95);"/>
            </g>
            <g transform="matrix(0.742891,0,0,0.947567,421.887,60.41)">
                <rect x="137.278" y="272.596" width="33.023" height="10.136" style="fill:rgb(53,222,95);"/>
            </g>
            <g transform="matrix(0.806687,0,0,0.947567,255.132,60.41)">
                <rect x="137.278" y="272.596" width="33.023" height="10.136" style="fill:rgb(95,129,234);"/>
            </g>
            <g transform="matrix(0.806687,0,0,0.947567,312.05,60.41)">
                <rect x="137.278" y="272.596" width="33.023" height="10.136" style="fill:rgb(95,129,234);"/>
            </g>
            <g transform="matrix(0.871518,0,0,0.947567,134.702,60.41)">
                <rect x="137.278" y="272.596" width="33.023" height="10.136" style="fill:rgb(244,233,52);"/>
            </g>
            <g transform="matrix(2.04063,0,0,0.947567,194.436,106.704)">
                <rect x="137.278" y="272.596" width="33.023" height="10.136" style="fill:rgb(53,222,95);"/>
            </g>
            <g transform="matrix(2.43016,0,0,0.947567,35.5143,106.704)">
                <rect x="137.278" y="272.596" width="33.023" height="10.136" style="fill:rgb(95,129,234);"/>
            </g>
            <g transform="matrix(2.36786,0,0,0.947567,-54.515,106.704)">
                <rect x="137.278" y="272.596" width="33.023" height="10.136" style="fill:rgb(244,233,52);"/>
            </g>
            <g transform="matrix(1.27263,0,0,0.947567,315.099,37.411)">
                <rect x="137.278" y="272.596" width="33.023" height="10.136" style="fill:rgb(53,222,95);"/>
            </g>
            <g transform="matrix(0.806687,0,0,0.947567,255.132,37.411)">
                <rect x="137.278" y="272.596" width="33.023" height="10.136" style="fill:rgb(95,129,234);"/>
            </g>
            <g transform="matrix(0.806687,0,0,0.947567,312.05,37.411)">
                <rect x="137.278" y="272.596" width="33.023" height="10.136" style="fill:rgb(95,129,234);"/>
            </g>
            <g transform="matrix(0.915957,0,0,0.947567,132.813,37.411)">
                <rect x="137.278" y="272.596" width="33.023" height="10.136" style="fill:rgb(244,233,52);"/>
            </g>
            <g transform="matrix(2.50237,0,0,0.947567,123.348,83.7213)">
                <rect x="137.278" y="272.596" width="33.023" height="10.136" style="fill:rgb(53,222,95);"/>
            </g>
            <g transform="matrix(0.806687,0,0,0.947567,255.132,83.7213)">
                <rect x="137.278" y="272.596" width="33.023" height="10.136" style="fill:rgb(95,129,234);"/>
            </g>
            <g transform="matrix(0.806687,0,0,0.947567,312.05,83.7213)">
                <rect x="137.278" y="272.596" width="33.023" height="10.136" style="fill:rgb(95,129,234);"/>
            </g>
            <g transform="matrix(0.963,0,0,0.947567,124.801,83.7213)">
                <rect x="137.278" y="272.596" width="33.023" height="10.136" style="fill:rgb(244,233,52);"/>
            </g>
        </g>
        <g fill="white">
            <g transform="matrix(0.651945,0,0,0.89687,203.948,40.519)">
                <path d="M663.243,199.854C660.333,201.47 657.585,203.303 654.998,205.351C650.363,209.231 646.914,211.171 644.651,211.171C642.927,211.171 641.364,210.47 639.962,209.069C638.454,207.56 637.699,205.89 637.699,204.057C637.699,200.069 642.927,194.141 653.381,186.273C669.441,174.202 687.117,168.166 706.41,168.166C721.392,168.166 733.302,173.07 742.14,182.878C750.116,191.716 754.104,202.387 754.104,214.889C754.104,235.584 746.452,259.889 731.146,287.804C713.255,320.462 689.974,347.516 661.303,368.964C640.07,384.916 621.208,392.892 604.718,392.892C598.251,392.892 593.347,390.952 590.005,387.072C587.311,383.838 585.964,380.389 585.963,376.725C585.964,371.228 589.52,358.833 596.634,339.54C607.412,310.654 620.777,280.529 636.729,249.164C639.1,244.422 647.938,227.985 663.243,199.854ZM678.441,192.417C681.674,194.033 683.291,195.812 683.291,197.752C683.291,199.153 681.243,203.572 677.147,211.009C656.992,247.116 639.962,281.714 626.059,314.804C613.448,344.552 607.143,362.821 607.143,369.611C607.143,373.922 609.191,376.078 613.286,376.078C620.184,376.078 629.454,372.359 641.094,364.923C655.645,355.761 671.651,340.402 689.111,318.846C704.955,299.445 717.458,278.804 726.62,256.925C733.733,240.11 737.29,225.183 737.29,212.141C737.29,202.872 735.027,195.947 730.5,191.366C725.973,186.785 719.183,184.495 710.129,184.495C700.967,184.495 690.405,187.135 678.441,192.417Z" style="fill-rule:nonzero;"/>
            </g>
            <g transform="matrix(0.651945,0,0,0.89687,203.948,40.519)">
                <path d="M832.677,257.41C842.809,261.074 850.462,265.655 855.635,271.152C864.473,280.421 868.892,291.199 868.892,303.487C868.892,318.253 864.419,332.264 855.473,345.522C847.066,357.701 836.342,367.348 823.3,374.461C810.151,381.575 796.624,385.132 782.72,385.132C771.942,385.132 760.302,382.383 747.799,376.886C746.829,379.796 746.236,381.737 746.02,382.707C744.619,387.772 742.41,390.305 739.392,390.305C736.266,390.305 733.572,388.527 731.308,384.97C729.691,382.491 728.883,379.958 728.883,377.371C728.883,373.599 731.254,365.677 735.997,353.605C745.697,328.815 754.212,309.361 761.541,295.241C766.068,286.511 775.445,269.912 789.672,245.446C795.924,234.883 804.923,220.494 816.672,202.279C819.474,197.968 822.169,193.602 824.755,189.183C819.366,190.908 812.63,193.71 804.546,197.59C797.648,200.824 793.606,202.441 792.421,202.441C790.804,202.441 789.403,201.632 788.217,200.015C787.032,198.399 786.439,196.512 786.439,194.357C786.439,191.016 787.571,188.59 789.834,187.082C793.93,184.171 801.259,180.561 811.822,176.249C833.917,167.303 851.755,162.83 865.336,162.83C876.76,162.83 886.03,165.687 893.143,171.399C900.257,177.112 903.814,184.279 903.814,192.902C903.814,210.686 893.521,226.045 872.934,238.979C860.539,246.739 847.12,252.883 832.677,257.41ZM808.426,247.386C826.749,244.045 843.995,237.524 860.162,227.823C878.916,216.506 888.293,205.243 888.293,194.033C888.293,188.86 885.814,184.818 880.856,181.908C877.623,179.968 873.096,178.998 867.276,178.998C863.503,178.998 859.461,179.402 855.15,180.21C850.839,181.019 846.258,182.231 841.408,183.848C843.24,185.249 844.156,186.974 844.156,189.022C844.156,191.824 842.378,195.596 838.821,200.339C837.635,201.955 835.48,205.135 832.354,209.877C831.169,211.925 827.558,217.368 821.522,226.207C815.594,234.937 811.229,241.997 808.426,247.386ZM752.326,363.144C755.99,365.3 758.685,366.701 760.409,367.348C765.044,369.18 771.188,370.096 778.84,370.096C801.798,370.096 820.175,360.988 833.971,342.773C845.719,327.36 851.593,312.217 851.593,297.343C851.593,287.211 847.12,279.182 838.174,273.254C832.893,269.805 826.696,268.08 819.582,268.08C816.887,268.08 812.899,268.673 807.618,269.858C806.648,270.074 805.678,270.182 804.708,270.182C802.121,270.182 799.965,268.296 798.241,264.523C789.618,277.673 779.918,296.05 769.14,319.654C763.643,331.726 758.038,346.222 752.326,363.144Z" style="fill-rule:nonzero;"/>
            </g>
        </g>
    </g>
</svg>
